<?xml version="1.0" encoding="UTF-8"?>
<svg xmlns="http://www.w3.org/2000/svg" xmlns:xlink="http://www.w3.org/1999/xlink" width="125px" height="63px" viewBox="0 0 126 63" version="1.1">
<g id="surface1">
<path style=" stroke:none;fill-rule:evenodd;fill:rgb(99.607843%,99.607843%,99.607843%);fill-opacity:1;" d="M -0.0898438 -0.0898438 C 18.390625 -0.0898438 36.871094 -0.0898438 55.347656 -0.0898438 C 55.296875 0.0273438 55.234375 0.148438 55.167969 0.269531 C 85.46875 0.511719 115.769531 0.511719 146.070312 0.269531 C 146.136719 0.148438 146.195312 0.0273438 146.25 -0.0898438 C 146.910156 -0.0898438 147.570312 -0.0898438 148.230469 -0.0898438 C 148.230469 27.628906 148.230469 55.347656 148.230469 83.070312 C 98.789062 83.070312 49.351562 83.070312 -0.0898438 83.070312 C -0.0898438 55.347656 -0.0898438 27.628906 -0.0898438 -0.0898438 Z M -0.0898438 -0.0898438 "/>
<path style=" stroke:none;fill-rule:evenodd;fill:rgb(92.156863%,92.156863%,92.156863%);fill-opacity:1;" d="M 55.347656 -0.0898438 C 85.648438 -0.0898438 115.949219 -0.0898438 146.25 -0.0898438 C 146.195312 0.0273438 146.136719 0.148438 146.070312 0.269531 C 115.769531 0.511719 85.46875 0.511719 55.167969 0.269531 C 55.234375 0.148438 55.296875 0.0273438 55.347656 -0.0898438 Z M 55.347656 -0.0898438 "/>
<path style=" stroke:none;fill-rule:evenodd;fill:rgb(83.529412%,49.019608%,12.54902%);fill-opacity:1;" d="M 35.910156 29.96875 C 36.90625 30.28125 37.234375 30.941406 36.898438 31.949219 C 35.507812 33.371094 34.097656 34.75 32.667969 36.089844 C 31.660156 37.316406 30.398438 38.1875 28.890625 38.699219 C 27.582031 38.914062 26.378906 38.644531 25.289062 37.890625 C 24.335938 36.964844 23.34375 36.066406 22.320312 35.191406 C 21.851562 33.199219 22.601562 32.507812 24.570312 33.121094 C 25.527344 34.199219 26.636719 35.070312 27.898438 35.730469 C 28.238281 35.675781 28.570312 35.585938 28.890625 35.460938 C 29.820312 34.679688 30.71875 33.871094 31.589844 33.03125 C 32.75 32.082031 33.890625 31.09375 35.011719 30.058594 C 35.304688 29.972656 35.605469 29.941406 35.910156 29.96875 Z M 35.910156 29.96875 "/>
<path style=" stroke:none;fill-rule:evenodd;fill:rgb(80%,53.72549%,26.27451%);fill-opacity:1;" d="M 35.910156 29.96875 C 35.605469 29.941406 35.304688 29.972656 35.011719 30.058594 C 33.890625 31.09375 32.75 32.082031 31.589844 33.03125 C 32.578125 31.890625 33.660156 30.839844 34.832031 29.878906 C 35.226562 29.738281 35.589844 29.769531 35.910156 29.96875 Z M 35.910156 29.96875 "/>
<path style=" stroke:none;fill-rule:evenodd;fill:rgb(14.117647%,14.117647%,14.117647%);fill-opacity:1;" d="M 85.589844 40.589844 C 86.308594 40.589844 87.03125 40.589844 87.75 40.589844 C 87.707031 40.824219 87.765625 41.003906 87.929688 41.128906 C 88.320312 42.082031 89.039062 42.503906 90.089844 42.390625 C 91.925781 42.269531 92.347656 41.460938 91.351562 39.960938 C 90.402344 39.542969 89.441406 39.183594 88.46875 38.878906 C 87.375 38.4375 86.5625 37.6875 86.039062 36.628906 C 85.652344 34.679688 86.402344 33.386719 88.289062 32.761719 C 90 32.355469 91.617188 32.59375 93.148438 33.480469 C 93.882812 34.199219 94.242188 35.066406 94.230469 36.089844 C 93.449219 36.089844 92.667969 36.089844 91.890625 36.089844 C 91.851562 34.878906 91.21875 34.339844 90 34.46875 C 88.625 34.34375 88.085938 34.945312 88.378906 36.269531 C 88.691406 36.652344 89.082031 36.921875 89.550781 37.078125 C 91.195312 37.425781 92.605469 38.175781 93.78125 39.332031 C 94.726562 42.589844 93.464844 44.210938 90 44.191406 C 88.359375 44.285156 87.039062 43.683594 86.039062 42.390625 C 85.679688 41.84375 85.527344 41.242188 85.589844 40.589844 Z M 85.589844 40.589844 "/>
<path style=" stroke:none;fill-rule:evenodd;fill:rgb(12.54902%,12.54902%,12.54902%);fill-opacity:1;" d="M 74.609375 32.667969 C 74.609375 33.269531 74.609375 33.871094 74.609375 34.46875 C 73.4375 34.410156 72.296875 34.472656 71.191406 34.648438 C 71.191406 37.769531 71.191406 40.890625 71.191406 44.007812 C 70.46875 44.007812 69.75 44.007812 69.03125 44.007812 C 69.03125 40.828125 69.03125 37.652344 69.03125 34.46875 C 67.832031 34.46875 66.628906 34.46875 65.429688 34.46875 C 65.429688 33.871094 65.429688 33.269531 65.429688 32.667969 C 68.488281 32.667969 71.550781 32.667969 74.609375 32.667969 Z M 74.609375 32.667969 "/>
<path style=" stroke:none;fill-rule:evenodd;fill:rgb(14.117647%,14.117647%,14.117647%);fill-opacity:1;" d="M 84.691406 43.648438 C 84.671875 43.761719 84.609375 43.851562 84.511719 43.917969 C 83.792969 44.007812 83.070312 44.039062 82.351562 44.007812 C 82.148438 43.28125 81.90625 42.5625 81.628906 41.851562 C 80.25 41.609375 78.871094 41.609375 77.488281 41.851562 C 77.25 42.507812 77.007812 43.171875 76.769531 43.828125 C 75.9375 44.007812 75.097656 44.070312 74.25 44.007812 C 75.632812 40.3125 76.984375 36.589844 78.300781 32.851562 C 79.09375 32.675781 79.902344 32.617188 80.730469 32.667969 C 82.050781 36.328125 83.371094 39.988281 84.691406 43.648438 Z M 84.691406 43.648438 "/>
<path style=" stroke:none;fill-rule:evenodd;fill:rgb(77.647059%,77.647059%,77.647059%);fill-opacity:1;" d="M 98.550781 37.351562 C 98.5 37.492188 98.410156 37.613281 98.28125 37.710938 C 98.191406 36.152344 98.160156 34.589844 98.191406 33.03125 C 98.320312 34.25 98.441406 35.691406 98.550781 37.351562 Z M 98.550781 37.351562 "/>
<path style=" stroke:none;fill-rule:evenodd;fill:rgb(13.72549%,14.117647%,14.117647%);fill-opacity:1;" d="M 98.191406 33.03125 C 98.160156 34.589844 98.191406 36.152344 98.28125 37.710938 C 98.410156 37.613281 98.5 37.492188 98.550781 37.351562 C 99.65625 35.972656 100.734375 34.5625 101.789062 33.121094 C 102.636719 33.027344 103.476562 32.964844 104.308594 32.941406 C 104.492188 33.128906 104.523438 33.339844 104.398438 33.570312 C 103.253906 34.921875 102.144531 36.304688 101.070312 37.710938 C 102.375 39.664062 103.636719 41.644531 104.851562 43.648438 C 104.089844 44 103.25 44.117188 102.332031 44.007812 C 101.457031 42.507812 100.5 41.066406 99.449219 39.691406 C 99.03125 40.015625 98.640625 40.378906 98.28125 40.769531 C 98.191406 41.847656 98.160156 42.929688 98.191406 44.007812 C 97.410156 44.007812 96.628906 44.007812 95.851562 44.007812 C 95.777344 40.582031 95.867188 37.164062 96.121094 33.75 C 96.175781 33.523438 96.265625 33.3125 96.390625 33.121094 C 96.996094 32.902344 97.597656 32.875 98.191406 33.03125 Z M 98.191406 33.03125 "/>
<path style=" stroke:none;fill-rule:evenodd;fill:rgb(76.078431%,49.803922%,22.352941%);fill-opacity:1;" d="M 57.148438 34.46875 C 51.621094 34.414062 46.101562 34.472656 40.589844 34.648438 C 40.609375 34.539062 40.671875 34.449219 40.769531 34.378906 C 46.261719 34.230469 51.722656 34.261719 57.148438 34.46875 Z M 57.148438 34.46875 "/>
<path style=" stroke:none;fill-rule:evenodd;fill:rgb(50.980392%,50.980392%,50.980392%);fill-opacity:1;" d="M 74.609375 32.667969 C 74.785156 33.292969 74.847656 33.953125 74.789062 34.648438 C 73.589844 34.648438 72.390625 34.648438 71.191406 34.648438 C 72.296875 34.472656 73.4375 34.410156 74.609375 34.46875 C 74.609375 33.871094 74.609375 33.269531 74.609375 32.667969 Z M 74.609375 32.667969 "/>
<path style=" stroke:none;fill-rule:evenodd;fill:rgb(83.921569%,48.235294%,9.803922%);fill-opacity:1;" d="M 57.148438 34.46875 C 57.390625 34.589844 57.570312 34.769531 57.691406 35.011719 C 57.691406 35.488281 57.691406 35.96875 57.691406 36.449219 C 57.359375 36.398438 57.117188 36.519531 56.96875 36.808594 C 51.632812 37.019531 46.289062 37.050781 40.949219 36.898438 C 40.199219 36.242188 40.078125 35.492188 40.589844 34.648438 C 46.101562 34.472656 51.621094 34.414062 57.148438 34.46875 Z M 57.148438 34.46875 "/>
<path style=" stroke:none;fill-rule:evenodd;fill:rgb(42.352941%,42.352941%,42.352941%);fill-opacity:1;" d="M 65.429688 34.46875 C 66.628906 34.46875 67.832031 34.46875 69.03125 34.46875 C 69.03125 37.652344 69.03125 40.828125 69.03125 44.007812 C 69.75 44.007812 70.46875 44.007812 71.191406 44.007812 C 70.445312 44.1875 69.667969 44.246094 68.851562 44.191406 C 68.851562 41.007812 68.851562 37.832031 68.851562 34.648438 C 67.675781 34.707031 66.535156 34.648438 65.429688 34.46875 Z M 65.429688 34.46875 "/>
<path style=" stroke:none;fill-rule:evenodd;fill:rgb(96.078431%,96.078431%,96.078431%);fill-opacity:1;" d="M 79.46875 35.550781 C 80.054688 36.9375 80.53125 38.378906 80.910156 39.871094 C 80.011719 39.871094 79.109375 39.871094 78.210938 39.871094 C 78.628906 38.429688 79.050781 36.988281 79.46875 35.550781 Z M 79.46875 35.550781 "/>
<path style=" stroke:none;fill-rule:evenodd;fill:rgb(83.921569%,58.431373%,32.156863%);fill-opacity:1;" d="M 40.589844 34.648438 C 40.078125 35.492188 40.199219 36.242188 40.949219 36.898438 C 46.289062 37.050781 51.632812 37.019531 56.96875 36.808594 C 57.117188 36.519531 57.359375 36.398438 57.691406 36.449219 C 57.691406 35.96875 57.691406 35.488281 57.691406 35.011719 C 58.148438 36.066406 57.851562 36.816406 56.789062 37.261719 C 51.570312 37.378906 46.351562 37.378906 41.128906 37.261719 C 39.925781 36.582031 39.742188 35.710938 40.589844 34.648438 Z M 40.589844 34.648438 "/>
<path style=" stroke:none;fill-rule:evenodd;fill:rgb(99.607843%,96.862745%,89.411765%);fill-opacity:1;" d="M 32.667969 36.089844 C 31.277344 38.433594 29.238281 39.367188 26.550781 38.878906 C 25.988281 38.707031 25.570312 38.375 25.289062 37.890625 C 26.378906 38.644531 27.582031 38.914062 28.890625 38.699219 C 30.398438 38.1875 31.660156 37.316406 32.667969 36.089844 Z M 32.667969 36.089844 "/>
<path style=" stroke:none;fill-rule:evenodd;fill:rgb(44.705882%,44.705882%,44.705882%);fill-opacity:1;" d="M 85.589844 40.589844 C 86.335938 40.414062 87.113281 40.351562 87.929688 40.410156 C 87.929688 40.648438 87.929688 40.890625 87.929688 41.128906 C 87.765625 41.003906 87.707031 40.824219 87.75 40.589844 C 87.03125 40.589844 86.308594 40.589844 85.589844 40.589844 Z M 85.589844 40.589844 "/>
<path style=" stroke:none;fill-rule:evenodd;fill:rgb(83.529412%,48.627451%,12.156863%);fill-opacity:1;" d="M 29.070312 47.429688 C 31.152344 45.828125 33.074219 44.027344 34.832031 42.03125 C 35.570312 41.546875 36.261719 41.667969 36.898438 42.390625 C 37.019531 42.871094 37.019531 43.351562 36.898438 43.828125 C 34.894531 45.894531 32.824219 47.90625 30.691406 49.859375 C 28.898438 50.941406 27.097656 50.941406 25.289062 49.859375 C 24.175781 48.804688 23.125 47.695312 22.140625 46.53125 C 21.960938 44.96875 22.648438 44.339844 24.210938 44.640625 C 25.242188 45.792969 26.382812 46.8125 27.628906 47.699219 C 28.160156 47.828125 28.636719 47.738281 29.070312 47.429688 Z M 29.070312 47.429688 "/>
<path style=" stroke:none;fill-rule:evenodd;fill:rgb(79.215686%,51.764706%,23.137255%);fill-opacity:1;" d="M 34.832031 42.03125 C 33.074219 44.027344 31.152344 45.828125 29.070312 47.429688 C 30.890625 45.703125 32.6875 43.929688 34.46875 42.121094 C 34.578125 42.035156 34.699219 42.007812 34.832031 42.03125 Z M 34.832031 42.03125 "/>
<path style=" stroke:none;fill-rule:evenodd;fill:rgb(66.666667%,66.666667%,66.666667%);fill-opacity:1;" d="M 84.691406 43.648438 C 84.851562 43.777344 84.914062 43.957031 84.871094 44.191406 C 83.996094 44.246094 83.15625 44.1875 82.351562 44.007812 C 83.070312 44.039062 83.792969 44.007812 84.511719 43.917969 C 84.609375 43.851562 84.671875 43.761719 84.691406 43.648438 Z M 84.691406 43.648438 "/>
<path style=" stroke:none;fill-rule:evenodd;fill:rgb(67.058824%,67.058824%,67.058824%);fill-opacity:1;" d="M 104.851562 43.648438 C 105.027344 43.707031 105.144531 43.828125 105.210938 44.007812 C 104.222656 44.246094 103.261719 44.246094 102.332031 44.007812 C 103.25 44.117188 104.089844 44 104.851562 43.648438 Z M 104.851562 43.648438 "/>
<path style=" stroke:none;fill-rule:evenodd;fill:rgb(81.568627%,55.294118%,28.235294%);fill-opacity:1;" d="M 57.511719 46.710938 C 51.996094 46.503906 46.476562 46.472656 40.949219 46.621094 C 40.816406 46.808594 40.636719 46.898438 40.410156 46.890625 C 40.5625 46.589844 40.800781 46.378906 41.128906 46.261719 C 46.351562 46.140625 51.570312 46.140625 56.789062 46.261719 C 57.117188 46.296875 57.359375 46.445312 57.511719 46.710938 Z M 57.511719 46.710938 "/>
<path style=" stroke:none;fill-rule:evenodd;fill:rgb(83.921569%,48.235294%,9.803922%);fill-opacity:1;" d="M 57.511719 46.710938 C 57.621094 46.730469 57.710938 46.789062 57.78125 46.890625 C 57.871094 47.425781 57.898438 47.964844 57.871094 48.511719 C 57.75 48.570312 57.628906 48.628906 57.511719 48.691406 C 52.308594 49.066406 47.085938 49.15625 41.851562 48.960938 C 41.410156 48.710938 40.929688 48.621094 40.410156 48.691406 C 39.941406 48.070312 39.941406 47.46875 40.410156 46.890625 C 40.636719 46.898438 40.816406 46.808594 40.949219 46.621094 C 46.476562 46.472656 51.996094 46.503906 57.511719 46.710938 Z M 57.511719 46.710938 "/>
<path style=" stroke:none;fill-rule:evenodd;fill:rgb(74.117647%,50.196078%,25.098039%);fill-opacity:1;" d="M 106.828125 49.050781 C 106.769531 49.050781 106.710938 49.050781 106.648438 49.050781 C 106.648438 48.871094 106.648438 48.691406 106.648438 48.511719 C 103.828125 48.511719 101.011719 48.511719 98.191406 48.511719 C 98.191406 48.691406 98.191406 48.871094 98.191406 49.050781 C 98.128906 49.050781 98.070312 49.050781 98.011719 49.050781 C 98.011719 48.808594 98.011719 48.570312 98.011719 48.328125 C 100.949219 48.328125 103.890625 48.328125 106.828125 48.328125 C 106.828125 48.570312 106.828125 48.808594 106.828125 49.050781 Z M 106.828125 49.050781 "/>
<path style=" stroke:none;fill-rule:evenodd;fill:rgb(100%,97.254902%,88.235294%);fill-opacity:1;" d="M 68.128906 51.390625 C 67.730469 50.390625 67.25 49.429688 66.691406 48.511719 C 66.3125 48.335938 65.890625 48.277344 65.429688 48.328125 C 65.429688 52.109375 65.429688 55.890625 65.429688 59.667969 C 65.21875 55.859375 65.191406 52.019531 65.339844 48.148438 C 65.84375 47.917969 66.351562 47.917969 66.871094 48.148438 C 67.46875 49.164062 67.886719 50.246094 68.128906 51.390625 Z M 68.128906 51.390625 "/>
<path style=" stroke:none;fill-rule:evenodd;fill:rgb(100%,96.470588%,86.666667%);fill-opacity:1;" d="M 115.648438 48.328125 C 113.371094 48.328125 111.089844 48.328125 108.808594 48.328125 C 108.628906 52.078125 108.570312 55.859375 108.628906 59.667969 C 108.449219 55.863281 108.390625 52.019531 108.449219 48.148438 C 110.882812 48.089844 113.28125 48.152344 115.648438 48.328125 Z M 115.648438 48.328125 "/>
<path style=" stroke:none;fill-rule:evenodd;fill:rgb(76.078431%,49.803922%,20.784314%);fill-opacity:1;" d="M 66.691406 48.511719 C 66.332031 48.511719 65.96875 48.511719 65.609375 48.511719 C 65.609375 52.171875 65.609375 55.828125 65.609375 59.488281 C 65.789062 59.488281 65.96875 59.488281 66.148438 59.488281 C 66.089844 56.277344 66.152344 53.097656 66.332031 49.949219 C 66.332031 53.191406 66.332031 56.429688 66.332031 59.667969 C 66.03125 59.667969 65.730469 59.667969 65.429688 59.667969 C 65.429688 55.890625 65.429688 52.109375 65.429688 48.328125 C 65.890625 48.277344 66.3125 48.335938 66.691406 48.511719 Z M 66.691406 48.511719 "/>
<path style=" stroke:none;fill-rule:evenodd;fill:rgb(82.352941%,48.235294%,11.764706%);fill-opacity:1;" d="M 106.648438 49.050781 C 105.355469 48.992188 104.097656 49.050781 102.871094 49.230469 C 102.691406 52.617188 102.628906 56.039062 102.691406 59.488281 C 102.507812 59.488281 102.332031 59.488281 102.152344 59.488281 C 102.210938 56.039062 102.148438 52.617188 101.96875 49.230469 C 100.742188 49.050781 99.484375 48.992188 98.191406 49.050781 C 98.191406 48.871094 98.191406 48.691406 98.191406 48.511719 C 101.011719 48.511719 103.828125 48.511719 106.648438 48.511719 C 106.648438 48.691406 106.648438 48.871094 106.648438 49.050781 Z M 106.648438 49.050781 "/>
<path style=" stroke:none;fill-rule:evenodd;fill:rgb(82.745098%,49.019608%,13.333333%);fill-opacity:1;" d="M 108.808594 48.511719 C 111.03125 48.449219 113.253906 48.511719 115.46875 48.691406 C 113.519531 48.808594 111.601562 48.929688 109.710938 49.050781 C 109.710938 49.109375 109.710938 49.171875 109.710938 49.230469 C 109.53125 50.695312 109.472656 52.195312 109.53125 53.730469 C 111.273438 53.671875 113.015625 53.730469 114.75 53.910156 C 113.042969 54.03125 111.363281 54.148438 109.710938 54.269531 C 109.710938 55.828125 109.710938 57.390625 109.710938 58.949219 C 111.660156 59.070312 113.640625 59.191406 115.648438 59.308594 C 113.375 59.488281 111.09375 59.550781 108.808594 59.488281 C 108.808594 55.828125 108.808594 52.171875 108.808594 48.511719 Z M 108.808594 48.511719 "/>
<path style=" stroke:none;fill-rule:evenodd;fill:rgb(73.333333%,50.196078%,26.27451%);fill-opacity:1;" d="M 122.488281 48.511719 C 120.988281 48.511719 119.488281 48.511719 117.992188 48.511719 C 117.929688 52.199219 117.992188 55.863281 118.167969 59.488281 C 118.167969 59.550781 118.167969 59.609375 118.167969 59.667969 C 117.8125 55.953125 117.691406 52.175781 117.808594 48.328125 C 119.402344 48.269531 120.964844 48.332031 122.488281 48.511719 Z M 122.488281 48.511719 "/>
<path style=" stroke:none;fill-rule:evenodd;fill:rgb(82.745098%,48.235294%,11.372549%);fill-opacity:1;" d="M 118.710938 54.089844 C 118.710938 54.210938 118.769531 54.269531 118.890625 54.269531 C 120.175781 54.449219 121.496094 54.507812 122.851562 54.449219 C 122.917969 55.113281 122.675781 55.292969 122.128906 54.992188 C 120.988281 54.992188 119.847656 54.992188 118.710938 54.992188 C 118.710938 56.550781 118.710938 58.109375 118.710938 59.667969 C 118.53125 59.667969 118.347656 59.667969 118.167969 59.667969 C 118.167969 59.609375 118.167969 59.550781 118.167969 59.488281 C 118.109375 55.886719 118.167969 52.289062 118.347656 48.691406 C 118.46875 50.519531 118.589844 52.320312 118.710938 54.089844 Z M 118.710938 54.089844 "/>
<path style=" stroke:none;fill-rule:evenodd;fill:rgb(76.862745%,49.411765%,20.392157%);fill-opacity:1;" d="M 108.808594 48.511719 C 108.808594 48.449219 108.808594 48.390625 108.808594 48.328125 C 111.089844 48.328125 113.371094 48.328125 115.648438 48.328125 C 115.648438 48.570312 115.648438 48.808594 115.648438 49.050781 C 113.671875 49.050781 111.691406 49.050781 109.710938 49.050781 C 111.601562 48.929688 113.519531 48.808594 115.46875 48.691406 C 113.253906 48.511719 111.03125 48.449219 108.808594 48.511719 Z M 108.808594 48.511719 "/>
<path style=" stroke:none;fill-rule:evenodd;fill:rgb(78.039216%,50.588235%,21.176471%);fill-opacity:1;" d="M 40.410156 48.871094 C 40.410156 48.808594 40.410156 48.75 40.410156 48.691406 C 40.929688 48.621094 41.410156 48.710938 41.851562 48.960938 C 47.085938 49.15625 52.308594 49.066406 57.511719 48.691406 C 57.429688 48.863281 57.308594 49.011719 57.148438 49.140625 C 51.75 49.261719 46.351562 49.261719 40.949219 49.140625 C 40.765625 49.046875 40.585938 48.957031 40.410156 48.871094 Z M 40.410156 48.871094 "/>
<path style=" stroke:none;fill-rule:evenodd;fill:rgb(93.333333%,73.333333%,51.764706%);fill-opacity:1;" d="M 115.648438 48.328125 C 115.820312 48.585938 115.882812 48.886719 115.828125 49.230469 C 113.789062 49.230469 111.75 49.230469 109.710938 49.230469 C 109.710938 49.171875 109.710938 49.109375 109.710938 49.050781 C 111.691406 49.050781 113.671875 49.050781 115.648438 49.050781 C 115.648438 48.808594 115.648438 48.570312 115.648438 48.328125 Z M 115.648438 48.328125 "/>
<path style=" stroke:none;fill-rule:evenodd;fill:rgb(100%,98.039216%,89.019608%);fill-opacity:1;" d="M 57.871094 48.511719 C 57.804688 48.847656 57.625 49.117188 57.328125 49.320312 C 51.808594 49.441406 46.289062 49.441406 40.769531 49.320312 C 40.542969 49.246094 40.425781 49.09375 40.410156 48.871094 C 40.585938 48.957031 40.765625 49.046875 40.949219 49.140625 C 46.351562 49.261719 51.75 49.261719 57.148438 49.140625 C 57.308594 49.011719 57.429688 48.863281 57.511719 48.691406 C 57.628906 48.628906 57.75 48.570312 57.871094 48.511719 Z M 57.871094 48.511719 "/>
<path style=" stroke:none;fill-rule:evenodd;fill:rgb(100%,96.078431%,87.45098%);fill-opacity:1;" d="M 94.410156 49.410156 C 93.386719 49.378906 92.367188 49.410156 91.351562 49.5 C 90.449219 50.175781 90.210938 51.042969 90.628906 52.109375 C 90.136719 51.683594 89.988281 51.144531 90.179688 50.492188 C 90.757812 49.347656 91.6875 48.867188 92.96875 49.050781 C 93.390625 49.082031 93.808594 49.109375 94.230469 49.140625 C 94.328125 49.210938 94.390625 49.300781 94.410156 49.410156 Z M 94.410156 49.410156 "/>
<path style=" stroke:none;fill-rule:evenodd;fill:rgb(76.470588%,49.411765%,20.784314%);fill-opacity:1;" d="M 101.96875 49.230469 C 102.148438 52.617188 102.210938 56.039062 102.152344 59.488281 C 102.332031 59.488281 102.507812 59.488281 102.691406 59.488281 C 102.628906 56.039062 102.691406 52.617188 102.871094 49.230469 C 102.871094 52.710938 102.871094 56.191406 102.871094 59.667969 C 102.570312 59.667969 102.269531 59.667969 101.96875 59.667969 C 101.96875 56.191406 101.96875 52.710938 101.96875 49.230469 Z M 101.96875 49.230469 "/>
<path style=" stroke:none;fill-rule:evenodd;fill:rgb(98.039216%,83.137255%,68.235294%);fill-opacity:1;" d="M 106.648438 49.050781 C 106.710938 49.050781 106.769531 49.050781 106.828125 49.050781 C 105.601562 49.226562 104.34375 49.289062 103.050781 49.230469 C 103.109375 52.742188 103.050781 56.222656 102.871094 59.667969 C 102.871094 56.191406 102.871094 52.710938 102.871094 49.230469 C 104.097656 49.050781 105.355469 48.992188 106.648438 49.050781 Z M 106.648438 49.050781 "/>
<path style=" stroke:none;fill-rule:evenodd;fill:rgb(81.568627%,50.588235%,18.431373%);fill-opacity:1;" d="M 96.75 50.492188 C 96.75 50.789062 96.75 51.089844 96.75 51.390625 C 96.570312 51.390625 96.390625 51.390625 96.210938 51.390625 C 96.257812 51.050781 96.136719 50.8125 95.851562 50.671875 C 95.59375 49.992188 95.113281 49.574219 94.410156 49.410156 C 94.390625 49.300781 94.328125 49.210938 94.230469 49.140625 C 93.808594 49.109375 93.390625 49.082031 92.96875 49.050781 C 91.6875 48.867188 90.757812 49.347656 90.179688 50.492188 C 89.988281 51.144531 90.136719 51.683594 90.628906 52.109375 C 90.914062 52.601562 91.332031 52.933594 91.890625 53.101562 C 93.324219 53.5 94.703125 54.039062 96.03125 54.71875 C 97.230469 56.160156 97.230469 57.601562 96.03125 59.039062 C 94.140625 60.042969 92.21875 60.101562 90.269531 59.21875 C 89.328125 58.515625 88.847656 57.585938 88.828125 56.429688 C 89.191406 56.429688 89.550781 56.429688 89.910156 56.429688 C 90.066406 58.265625 91.085938 59.167969 92.96875 59.128906 C 93.507812 59.152344 93.988281 59.03125 94.410156 58.769531 C 95.75 58.371094 96.261719 57.472656 95.941406 56.070312 C 95.660156 55.609375 95.269531 55.28125 94.769531 55.082031 C 93.308594 54.59375 91.867188 54.054688 90.449219 53.460938 C 88.773438 51.886719 88.773438 50.324219 90.449219 48.78125 C 92.597656 47.746094 94.546875 48.015625 96.300781 49.589844 C 96.453125 49.894531 96.601562 50.195312 96.75 50.492188 Z M 96.75 50.492188 "/>
<path style=" stroke:none;fill-rule:evenodd;fill:rgb(77.254902%,55.686275%,33.333333%);fill-opacity:1;" d="M 96.75 50.492188 C 96.921875 50.808594 96.984375 51.167969 96.929688 51.570312 C 96.207031 51.679688 95.847656 51.378906 95.851562 50.671875 C 96.136719 50.8125 96.257812 51.050781 96.210938 51.390625 C 96.390625 51.390625 96.570312 51.390625 96.75 51.390625 C 96.75 51.089844 96.75 50.789062 96.75 50.492188 Z M 96.75 50.492188 "/>
<path style=" stroke:none;fill-rule:evenodd;fill:rgb(98.823529%,87.45098%,69.803922%);fill-opacity:1;" d="M 98.011719 49.050781 C 98.070312 49.050781 98.128906 49.050781 98.191406 49.050781 C 99.484375 48.992188 100.742188 49.050781 101.96875 49.230469 C 101.96875 52.710938 101.96875 56.191406 101.96875 59.667969 C 101.789062 56.222656 101.730469 52.742188 101.789062 49.230469 C 100.496094 49.289062 99.238281 49.226562 98.011719 49.050781 Z M 98.011719 49.050781 "/>
<path style=" stroke:none;fill-rule:evenodd;fill:rgb(99.607843%,93.333333%,82.352941%);fill-opacity:1;" d="M 66.332031 49.949219 C 66.769531 50.609375 67.070312 51.328125 67.230469 52.109375 C 66.996094 52.011719 66.847656 51.828125 66.78125 51.570312 C 66.808594 54.335938 66.65625 57.035156 66.332031 59.667969 C 66.332031 56.429688 66.332031 53.191406 66.332031 49.949219 Z M 66.332031 49.949219 "/>
<path style=" stroke:none;fill-rule:evenodd;fill:rgb(77.254902%,50.588235%,21.960784%);fill-opacity:1;" d="M 75.148438 48.511719 C 75.527344 48.335938 75.949219 48.277344 76.410156 48.328125 C 76.410156 52.109375 76.410156 55.890625 76.410156 59.667969 C 76.109375 59.667969 75.808594 59.667969 75.507812 59.667969 C 75.539062 56.488281 75.507812 53.308594 75.417969 50.128906 C 75.265625 50.324219 75.117188 50.503906 74.96875 50.671875 C 74.910156 50.128906 75.148438 49.890625 75.691406 49.949219 C 75.691406 50.308594 75.691406 50.671875 75.691406 51.03125 C 75.574219 53.917969 75.691406 56.734375 76.050781 59.488281 C 76.230469 55.863281 76.289062 52.199219 76.230469 48.511719 C 75.871094 48.511719 75.507812 48.511719 75.148438 48.511719 Z M 75.148438 48.511719 "/>
<path style=" stroke:none;fill-rule:evenodd;fill:rgb(83.137255%,48.627451%,12.156863%);fill-opacity:1;" d="M 35.550781 57.328125 C 34.34375 58.472656 33.140625 59.613281 31.949219 60.75 C 31.441406 61.230469 30.898438 61.679688 30.332031 62.101562 C 29.980469 62.246094 29.621094 62.335938 29.25 62.371094 C 28.082031 62.433594 26.941406 62.3125 25.828125 62.011719 C 24.648438 61.21875 23.539062 60.320312 22.5 59.308594 C 21.671875 57.519531 22.238281 56.710938 24.210938 56.878906 C 25.230469 57.78125 26.25 58.679688 27.269531 59.578125 C 27.75 59.699219 28.230469 59.699219 28.710938 59.578125 C 30.691406 57.71875 32.667969 55.859375 34.648438 54 C 35.882812 53.445312 36.660156 53.804688 36.988281 55.082031 C 36.980469 55.433594 36.890625 55.765625 36.71875 56.070312 C 36.292969 56.46875 35.902344 56.886719 35.550781 57.328125 Z M 35.550781 57.328125 "/>
<path style=" stroke:none;fill-rule:evenodd;fill:rgb(80%,54.509804%,27.45098%);fill-opacity:1;" d="M 109.710938 49.230469 C 109.710938 50.609375 109.710938 51.992188 109.710938 53.371094 C 111.449219 53.371094 113.191406 53.371094 114.929688 53.371094 C 114.929688 53.671875 114.929688 53.96875 114.929688 54.269531 C 113.191406 54.269531 111.449219 54.269531 109.710938 54.269531 C 111.363281 54.148438 113.042969 54.03125 114.75 53.910156 C 113.015625 53.730469 111.273438 53.671875 109.53125 53.730469 C 109.472656 52.195312 109.53125 50.695312 109.710938 49.230469 Z M 109.710938 49.230469 "/>
<path style=" stroke:none;fill-rule:evenodd;fill:rgb(99.607843%,92.941176%,81.960784%);fill-opacity:1;" d="M 75.507812 59.667969 C 75.359375 56.882812 75.269531 54.0625 75.238281 51.210938 C 75.039062 51.472656 74.917969 51.769531 74.878906 52.109375 C 74.757812 52.246094 74.609375 52.304688 74.429688 52.289062 C 74.660156 51.765625 74.839844 51.226562 74.96875 50.671875 C 75.117188 50.503906 75.265625 50.324219 75.417969 50.128906 C 75.507812 53.308594 75.539062 56.488281 75.507812 59.667969 Z M 75.507812 59.667969 "/>
<path style=" stroke:none;fill-rule:evenodd;fill:rgb(99.607843%,96.470588%,87.058824%);fill-opacity:1;" d="M 109.710938 49.230469 C 111.75 49.230469 113.789062 49.230469 115.828125 49.230469 C 113.882812 49.410156 111.902344 49.46875 109.890625 49.410156 C 109.890625 50.671875 109.890625 51.929688 109.890625 53.191406 C 111.632812 53.160156 113.371094 53.191406 115.109375 53.28125 C 115.351562 53.640625 115.351562 54 115.109375 54.359375 C 113.371094 54.449219 111.632812 54.480469 109.890625 54.449219 C 109.890625 55.890625 109.890625 57.328125 109.890625 58.769531 C 111.902344 58.710938 113.882812 58.769531 115.828125 58.949219 C 113.789062 58.949219 111.75 58.949219 109.710938 58.949219 C 109.710938 57.390625 109.710938 55.828125 109.710938 54.269531 C 111.449219 54.269531 113.191406 54.269531 114.929688 54.269531 C 114.929688 53.96875 114.929688 53.671875 114.929688 53.371094 C 113.191406 53.371094 111.449219 53.371094 109.710938 53.371094 C 109.710938 51.992188 109.710938 50.609375 109.710938 49.230469 Z M 109.710938 49.230469 "/>
<path style=" stroke:none;fill-rule:evenodd;fill:rgb(81.568627%,50.588235%,18.823529%);fill-opacity:1;" d="M 122.488281 48.511719 C 124.84375 48.894531 125.773438 50.273438 125.28125 52.648438 C 124.773438 53.574219 124.085938 54.324219 123.210938 54.902344 C 124.0625 56.488281 124.964844 58.046875 125.910156 59.578125 C 125.5 59.714844 125.109375 59.6875 124.738281 59.488281 C 123.867188 57.984375 123 56.484375 122.128906 54.992188 C 122.675781 55.292969 122.917969 55.113281 122.851562 54.449219 C 121.496094 54.507812 120.175781 54.449219 118.890625 54.269531 C 120.0625 54.328125 121.203125 54.269531 122.308594 54.089844 C 124.398438 53.449219 124.96875 52.132812 124.019531 50.128906 C 123.613281 49.78125 123.164062 49.511719 122.667969 49.320312 C 121.410156 49.230469 120.152344 49.199219 118.890625 49.230469 C 118.710938 50.816406 118.652344 52.4375 118.710938 54.089844 C 118.589844 52.320312 118.46875 50.519531 118.347656 48.691406 C 118.167969 52.289062 118.109375 55.886719 118.167969 59.488281 C 117.992188 55.863281 117.929688 52.199219 117.992188 48.511719 C 119.488281 48.511719 120.988281 48.511719 122.488281 48.511719 Z M 122.488281 48.511719 "/>
<path style=" stroke:none;fill-rule:evenodd;fill:rgb(87.058824%,69.803922%,51.372549%);fill-opacity:1;" d="M 118.890625 49.230469 C 118.890625 50.851562 118.890625 52.46875 118.890625 54.089844 C 120.03125 54.089844 121.167969 54.089844 122.308594 54.089844 C 121.203125 54.269531 120.0625 54.328125 118.890625 54.269531 C 118.769531 54.269531 118.710938 54.210938 118.710938 54.089844 C 118.652344 52.4375 118.710938 50.816406 118.890625 49.230469 Z M 118.890625 49.230469 "/>
<path style=" stroke:none;fill-rule:evenodd;fill:rgb(100%,99.215686%,98.039216%);fill-opacity:1;" d="M 118.890625 49.230469 C 120.152344 49.199219 121.410156 49.230469 122.667969 49.320312 C 123.164062 49.511719 123.613281 49.78125 124.019531 50.128906 C 124.96875 52.132812 124.398438 53.449219 122.308594 54.089844 C 121.167969 54.089844 120.03125 54.089844 118.890625 54.089844 C 118.890625 52.46875 118.890625 50.851562 118.890625 49.230469 Z M 118.890625 49.230469 "/>
<path style=" stroke:none;fill-rule:evenodd;fill:rgb(81.568627%,49.803922%,16.078431%);fill-opacity:1;" d="M 66.691406 48.511719 C 67.25 49.429688 67.730469 50.390625 68.128906 51.390625 C 68.710938 53.203125 69.433594 54.941406 70.289062 56.609375 C 70.410156 57.179688 70.621094 57.71875 70.917969 58.230469 C 71.371094 57.570312 71.699219 56.851562 71.910156 56.070312 C 72.894531 53.5 73.972656 50.980469 75.148438 48.511719 C 75.507812 48.511719 75.871094 48.511719 76.230469 48.511719 C 76.289062 52.199219 76.230469 55.863281 76.050781 59.488281 C 76.050781 55.890625 76.050781 52.289062 76.050781 48.691406 C 75.808594 48.691406 75.570312 48.691406 75.328125 48.691406 C 75.328125 49.050781 75.328125 49.410156 75.328125 49.769531 C 75.507812 49.769531 75.691406 49.769531 75.871094 49.769531 C 75.925781 50.230469 75.863281 50.652344 75.691406 51.03125 C 75.691406 50.671875 75.691406 50.308594 75.691406 49.949219 C 75.148438 49.890625 74.910156 50.128906 74.96875 50.671875 C 74.839844 51.226562 74.660156 51.765625 74.429688 52.289062 C 73.410156 54.683594 72.390625 57.085938 71.371094 59.488281 C 71.09375 59.660156 70.792969 59.722656 70.46875 59.667969 C 69.484375 57.097656 68.402344 54.578125 67.230469 52.109375 C 67.070312 51.328125 66.769531 50.609375 66.332031 49.949219 C 66.152344 53.097656 66.089844 56.277344 66.148438 59.488281 C 65.96875 59.488281 65.789062 59.488281 65.609375 59.488281 C 65.609375 55.828125 65.609375 52.171875 65.609375 48.511719 C 65.96875 48.511719 66.332031 48.511719 66.691406 48.511719 Z M 66.691406 48.511719 "/>
<path style=" stroke:none;fill-rule:evenodd;fill:rgb(83.921569%,48.235294%,9.411765%);fill-opacity:1;" d="M 76.050781 59.488281 C 75.691406 56.734375 75.574219 53.917969 75.691406 51.03125 C 75.863281 50.652344 75.925781 50.230469 75.871094 49.769531 C 75.691406 49.769531 75.507812 49.769531 75.328125 49.769531 C 75.328125 49.410156 75.328125 49.050781 75.328125 48.691406 C 75.570312 48.691406 75.808594 48.691406 76.050781 48.691406 C 76.050781 52.289062 76.050781 55.890625 76.050781 59.488281 Z M 76.050781 59.488281 "/>
<path style=" stroke:none;fill-rule:evenodd;fill:rgb(99.215686%,94.509804%,83.529412%);fill-opacity:1;" d="M 71.910156 56.070312 C 71.699219 56.851562 71.371094 57.570312 70.917969 58.230469 C 70.621094 57.71875 70.410156 57.179688 70.289062 56.609375 C 70.605469 56.875 70.8125 57.238281 70.917969 57.691406 C 71.203125 57.085938 71.535156 56.546875 71.910156 56.070312 Z M 71.910156 56.070312 "/>
<path style=" stroke:none;fill-rule:evenodd;fill:rgb(100%,93.72549%,83.137255%);fill-opacity:1;" d="M 57.328125 58.410156 C 51.75 58.167969 46.171875 58.167969 40.589844 58.410156 C 43.316406 58.167969 46.109375 58.050781 48.960938 58.050781 C 51.8125 58.050781 54.601562 58.167969 57.328125 58.410156 Z M 57.328125 58.410156 "/>
<path style=" stroke:none;fill-rule:evenodd;fill:rgb(81.960784%,50.588235%,18.431373%);fill-opacity:1;" d="M 82.53125 48.328125 C 82.941406 48.285156 83.332031 48.34375 83.699219 48.511719 C 85.03125 52.171875 86.378906 55.832031 87.75 59.488281 C 87.417969 59.714844 87.085938 59.714844 86.757812 59.488281 C 86.375 58.542969 86.042969 57.585938 85.769531 56.609375 C 83.964844 56.550781 82.167969 56.609375 80.371094 56.789062 C 80.054688 57.757812 79.753906 58.71875 79.46875 59.667969 C 79.109375 59.667969 78.75 59.667969 78.390625 59.667969 C 79.726562 55.859375 81.105469 52.082031 82.53125 48.328125 Z M 82.53125 48.328125 "/>
<path style=" stroke:none;fill-rule:evenodd;fill:rgb(99.215686%,94.901961%,85.490196%);fill-opacity:1;" d="M 83.96875 51.929688 C 83.53125 51.546875 83.230469 51.070312 83.070312 50.492188 C 82.492188 52.121094 81.832031 53.679688 81.089844 55.167969 C 81.660156 53.433594 82.261719 51.691406 82.890625 49.949219 C 83.027344 49.734375 83.179688 49.734375 83.339844 49.949219 C 83.550781 50.613281 83.761719 51.273438 83.96875 51.929688 Z M 83.96875 51.929688 "/>
<path style=" stroke:none;fill-rule:evenodd;fill:rgb(100%,99.215686%,97.647059%);fill-opacity:1;" d="M 83.96875 51.929688 C 84.441406 53.171875 84.859375 54.429688 85.230469 55.710938 C 83.789062 55.710938 82.351562 55.710938 80.910156 55.710938 C 80.867188 55.476562 80.925781 55.296875 81.089844 55.167969 C 81.832031 53.679688 82.492188 52.121094 83.070312 50.492188 C 83.230469 51.070312 83.53125 51.546875 83.96875 51.929688 Z M 83.96875 51.929688 "/>
<path style=" stroke:none;fill-rule:evenodd;fill:rgb(83.137255%,48.235294%,10.980392%);fill-opacity:1;" d="M 57.328125 58.410156 C 57.84375 58.964844 57.992188 59.625 57.78125 60.390625 C 57.636719 60.777344 57.367188 61.015625 56.96875 61.109375 C 51.570312 61.140625 46.167969 61.109375 40.769531 61.019531 C 39.953125 60.320312 39.835938 59.511719 40.410156 58.589844 C 40.53125 58.589844 40.589844 58.53125 40.589844 58.410156 C 46.171875 58.167969 51.75 58.167969 57.328125 58.410156 Z M 57.328125 58.410156 "/>
<path style=" stroke:none;fill-rule:evenodd;fill:rgb(99.607843%,93.72549%,82.745098%);fill-opacity:1;" d="M 89.910156 56.429688 C 90.054688 57.15625 90.414062 57.785156 90.988281 58.320312 C 92.09375 58.703125 93.234375 58.851562 94.410156 58.769531 C 93.988281 59.03125 93.507812 59.152344 92.96875 59.128906 C 91.085938 59.167969 90.066406 58.265625 89.910156 56.429688 Z M 89.910156 56.429688 "/>
<path style=" stroke:none;fill-rule:evenodd;fill:rgb(77.647059%,49.411765%,19.215686%);fill-opacity:1;" d="M 109.710938 58.949219 C 111.75 58.949219 113.789062 58.949219 115.828125 58.949219 C 115.828125 59.191406 115.828125 59.429688 115.828125 59.667969 C 113.457031 59.730469 111.117188 59.667969 108.808594 59.488281 C 111.09375 59.550781 113.375 59.488281 115.648438 59.308594 C 113.640625 59.191406 111.660156 59.070312 109.710938 58.949219 Z M 109.710938 58.949219 "/>
<path style=" stroke:none;fill-rule:evenodd;fill:rgb(92.54902%,75.686275%,57.647059%);fill-opacity:1;" d="M 108.808594 48.328125 C 108.808594 48.390625 108.808594 48.449219 108.808594 48.511719 C 108.808594 52.171875 108.808594 55.828125 108.808594 59.488281 C 111.117188 59.667969 113.457031 59.730469 115.828125 59.667969 C 113.429688 59.910156 111.03125 59.910156 108.628906 59.667969 C 108.570312 55.859375 108.628906 52.078125 108.808594 48.328125 Z M 108.808594 48.328125 "/>
<path style=" stroke:none;fill-rule:evenodd;fill:rgb(99.607843%,94.117647%,83.529412%);fill-opacity:1;" d="M 35.550781 57.328125 C 34.582031 58.71875 33.382812 59.859375 31.949219 60.75 C 33.140625 59.613281 34.34375 58.472656 35.550781 57.328125 Z M 35.550781 57.328125 "/>
<path style=" stroke:none;fill-rule:evenodd;fill:rgb(97.254902%,91.764706%,83.137255%);fill-opacity:1;" d="M 40.410156 58.589844 C 39.835938 59.511719 39.953125 60.320312 40.769531 61.019531 C 46.167969 61.109375 51.570312 61.140625 56.96875 61.109375 C 56.984375 61.289062 56.925781 61.4375 56.789062 61.558594 C 51.628906 61.679688 46.46875 61.679688 41.308594 61.558594 C 40.121094 61.15625 39.609375 60.34375 39.78125 59.128906 C 39.917969 58.847656 40.125 58.667969 40.410156 58.589844 Z M 40.410156 58.589844 "/>
<path style=" stroke:none;fill-rule:evenodd;fill:rgb(80.392157%,53.72549%,25.882353%);fill-opacity:1;" d="M 25.828125 62.011719 C 26.941406 62.3125 28.082031 62.433594 29.25 62.371094 C 29.175781 62.5 29.054688 62.589844 28.890625 62.640625 C 27.742188 62.894531 26.722656 62.6875 25.828125 62.011719 Z M 25.828125 62.011719 "/>
</g>
</svg>
